<svg width="56" height="56" viewBox="0 0 56 56" fill="none" xmlns="http://www.w3.org/2000/svg">
<g id="ic-delivered-grey ">
<g id="noun_receive_2139458 copy 2">
<path id="Combined Shape" fill-rule="evenodd" clip-rule="evenodd" d="M4.43338 56H10.9667C11.8689 56 12.6 55.2688 12.6 54.3667V38.0333C12.6 37.1312 11.8689 36.4 10.9667 36.4H4.43338C3.53124 36.4 2.80005 37.1312 2.80005 38.0333V54.3667C2.80005 55.2688 3.53124 56 4.43338 56ZM34.0265 55.0146L45.4864 49.8472C47.0374 49.1476 47.925 47.4049 47.4892 45.6387C47.0846 43.9999 45.5095 42.9333 43.8442 42.9333H34.2884C33.4034 45.44 31.216 47.3657 28.508 47.7582C27.6236 47.8867 26.8121 47.2633 26.6866 46.3731C26.5599 45.4797 27.1712 44.6527 28.0518 44.5253C30.0171 44.2395 31.4999 42.5021 31.4999 40.4833C31.4999 38.2321 29.694 36.4 27.4749 36.4H20.2305C19.8822 36.4 19.543 36.5149 19.264 36.7267L16.189 39.0664C15.6918 39.4446 15.4 40.0334 15.4 40.658V52.5147C15.4 53.2681 15.8233 53.9575 16.4951 54.2983L19.5092 55.8274C19.733 55.9407 19.9799 56 20.23 56H29.4498C31.0266 56 32.5856 55.6641 34.0265 55.0146Z" fill="#8C9BA5"/>
<g id="Group 10">
<rect id="Rectangle" x="19.6001" width="33.6" height="30.8" rx="1" fill="#C5CDD4"/>
<path id="Rectangle Copy" fill-rule="evenodd" clip-rule="evenodd" d="M32.2 0H40.6V15.4963C40.6 15.9774 40.0183 16.2183 39.6781 15.8782L36.7818 12.9818C36.5709 12.771 36.229 12.771 36.0181 12.9818L33.1218 15.8782C32.7816 16.2183 32.2 15.9774 32.2 15.4963V0Z" fill="white"/>
</g>
</g>
</g>
</svg>
