<svg width="56" height="56" viewBox="0 0 56 56" fill="none" xmlns="http://www.w3.org/2000/svg">
<g id="ic-outForDelivery-red ">
<g id="Group 11 Copy 2">
<path id="Combined Shape" fill-rule="evenodd" clip-rule="evenodd" d="M10.7867 56C14.2379 56 17.0357 53.1688 17.0357 49.6763C17.0357 46.1838 14.2379 43.3526 10.7867 43.3526C7.3354 43.3526 4.5376 46.1838 4.5376 49.6763C4.5376 53.1688 7.3354 56 10.7867 56ZM46.8921 56C50.3434 56 53.1412 53.1688 53.1412 49.6763C53.1412 46.1838 50.3434 43.3526 46.8921 43.3526C43.4409 43.3526 40.6431 46.1838 40.6431 49.6763C40.6431 53.1688 43.4409 56 46.8921 56Z" fill="#E83330"/>
<path id="Combined Shape_2" fill-rule="evenodd" clip-rule="evenodd" d="M36.1806 16.763C35.5963 16.7039 35.0889 17.1626 35.0889 17.7499V19.9717C35.0889 20.4809 35.4743 20.9073 35.9809 20.9586L40.7647 21.4427L44.2242 37.78C40.6919 38.5542 37.2904 40.4504 35.5503 43.336L35.5396 43.3526H26.4013C25.1119 40.8706 23.7499 37.099 24.8142 33.5157H27.1535C27.7014 33.5157 28.1455 33.0716 28.1455 32.5238V28.8866C28.1455 28.3388 27.7014 27.8947 27.1535 27.8947H1.36377C0.815956 27.8947 0.37186 28.3388 0.37186 28.8866V32.5238C0.37186 33.0716 0.815955 33.5157 1.36377 33.5157H3.97085C-1.13197 38.1546 0.371838 46.1632 0.371838 46.1632H0.37186V47.5684H2.56998C3.23111 43.5807 6.65832 40.5421 10.7869 40.5421C14.9154 40.5421 18.3426 43.5807 19.0037 47.5684H36.34L36.5067 47.5583C36.9462 47.5046 37.3382 47.2407 37.5554 46.8428C40.7585 40.9763 48.8583 39.6532 54.0661 43.2141C54.5707 43.5591 55.5871 43.2553 55.9191 42.5556C56.185 41.9952 55.735 41.3568 55.4431 40.9428C55.3706 40.84 55.3079 40.751 55.2684 40.6806C54.2356 38.8411 52.0668 37.7972 49.5007 37.485L45.095 21.8809L47.8839 22.1631C48.4682 22.2222 48.9757 21.7635 48.9757 21.1762V18.9544C48.9757 18.4452 48.5902 18.0188 48.0836 17.9675L36.1806 16.763Z" fill="#E83330"/>
<g id="Group 10">
<rect id="Rectangle" y="2.8" width="25.2" height="22.4" rx="1" fill="#FFBF80"/>
<path id="Rectangle Copy" fill-rule="evenodd" clip-rule="evenodd" d="M8.81982 2.80002H16.3798V14.2765C16.3798 14.7293 15.8561 14.981 15.5025 14.6982L12.9372 12.6459C12.7399 12.4881 12.4597 12.4881 12.2625 12.6459L9.69716 14.6982C9.34359 14.981 8.81982 14.7293 8.81982 14.2765V2.80002Z" fill="#E83330"/>
</g>
</g>
</g>
</svg>
