<svg width="56" height="56" viewBox="0 0 56 56" fill="none" xmlns="http://www.w3.org/2000/svg">
<g id="ic-confirmed-red ">
<g id="Group 2 Copy 2">
<path id="Combined Shape" fill-rule="evenodd" clip-rule="evenodd" d="M13.9399 1.39999C12.8906 1.39999 12.0399 2.25066 12.0399 3.3V9.38002H44.7199C45.7693 9.38002 46.6199 10.2307 46.6199 11.28V54.6H52.6999C53.7493 54.6 54.5999 53.7493 54.5999 52.7V3.29999C54.5999 2.25065 53.7493 1.39999 52.6999 1.39999H13.9399Z" fill="#FFBF80"/>
<rect id="Rectangle" x="29.33" y="1.39999" width="7.98" height="5.32" fill="#E83330"/>
<rect id="Rectangle Copy 6" x="1.40002" y="12.04" width="42.56" height="42.56" rx="1.9" fill="#E83330"/>
<rect id="Rectangle_2" x="6.72009" y="46.62" width="10.64" height="2.66" rx="0.95" fill="white"/>
<rect id="Rectangle Copy 2" x="6.72009" y="41.3" width="5.32" height="2.66" rx="0.95" fill="white"/>
<path id="Rectangle Copy" fill-rule="evenodd" clip-rule="evenodd" d="M16.0299 12.04H29.3299V34.0034C29.3299 34.8 28.4085 35.2428 27.7864 34.7452L23.2734 31.1347C22.9264 30.8572 22.4334 30.8572 22.0864 31.1347L17.5734 34.7452C16.9513 35.2428 16.0299 34.8 16.0299 34.0034V12.04Z" fill="white"/>
</g>
</g>
</svg>
