<svg width="56" height="56" viewBox="0 0 56 56" fill="none" xmlns="http://www.w3.org/2000/svg">
<g id="ic-picked-red ">
<g id="Group 8 Copy 2">
<path id="Path 2" d="M3.62015 6.42011C4.65607 5.38419 6.30174 5.32967 7.40185 6.25654L7.57995 6.42011L13.4727 12.3129C14.4479 13.288 15.0263 14.5859 15.1039 15.9554L15.1129 16.2727V39.204H47.6C49.1464 39.204 50.4 40.4576 50.4 42.004C50.4 43.4801 49.2578 44.6894 47.809 44.7963L47.6 44.804H15.1129C12.1138 44.804 9.66539 42.4464 9.51975 39.4835L9.5129 39.204V16.2727L3.62015 10.3799C2.52668 9.28644 2.52668 7.51358 3.62015 6.42011Z" fill="#E83330"/>
<g id="Group 3">
<rect id="Rectangle" x="18.2" y="16.8" width="30.8" height="19.6" rx="1.2" fill="#FFBF80"/>
<path id="Rectangle Copy" fill-rule="evenodd" clip-rule="evenodd" d="M29.4 16.8H37.8V26.7516C37.8 27.2547 37.2181 27.5344 36.8252 27.2201L33.9748 24.9398C33.7557 24.7645 33.4443 24.7645 33.2252 24.9398L30.3748 27.2201C29.982 27.5344 29.4 27.2547 29.4 26.7516V16.8Z" fill="#E83330"/>
</g>
<g id="Group 7">
<rect id="Rectangle_2" x="35" y="2.8" width="11.2" height="11.2" rx="0.4" fill="#E83330"/>
<path id="Rectangle Copy_2" fill-rule="evenodd" clip-rule="evenodd" d="M39.2 2.80002H42V7.98389C42 8.1516 41.806 8.24483 41.675 8.14007L40.7249 7.37997C40.6518 7.32153 40.5481 7.32153 40.475 7.37997L39.5249 8.14007C39.3939 8.24483 39.2 8.15159 39.2 7.98389V2.80002Z" fill="white"/>
</g>
<g id="Group 7 Copy">
<rect id="Rectangle_3" x="18.2" width="14" height="14" rx="0.5" fill="#E83330"/>
<path id="Rectangle Copy_3" fill-rule="evenodd" clip-rule="evenodd" d="M23.45 0H26.95V6.47984C26.95 6.68947 26.7075 6.80601 26.5438 6.67506L25.3561 5.72494C25.2648 5.6519 25.1351 5.6519 25.0438 5.72494L23.8561 6.67506C23.6924 6.80601 23.45 6.68947 23.45 6.47984V0Z" fill="white"/>
</g>
<circle id="Oval" cx="21" cy="51.8" r="4.2" fill="#E83330"/>
<circle id="Oval_2" cx="43.4" cy="51.8" r="4.2" fill="#E83330"/>
</g>
</g>
</svg>
