<svg width="56" height="56" viewBox="0 0 56 56" fill="none" xmlns="http://www.w3.org/2000/svg">
<g id="ic-delivered-red ">
<g id="noun_receive_2139458 copy 2">
<path id="Combined Shape" fill-rule="evenodd" clip-rule="evenodd" d="M4.43363 56H10.967C11.8691 56 12.6003 55.2688 12.6003 54.3667V38.0333C12.6003 37.1312 11.8691 36.4 10.967 36.4H4.43363C3.53148 36.4 2.80029 37.1312 2.80029 38.0333V54.3667C2.80029 55.2688 3.53148 56 4.43363 56ZM34.027 55.0146L45.4869 49.8472C47.0379 49.1476 47.9255 47.4049 47.4897 45.6387C47.0851 43.9999 45.51 42.9333 43.8447 42.9333H34.2889C33.4039 45.44 31.2165 47.3657 28.5085 47.7582C27.6241 47.8867 26.8126 47.2633 26.6871 46.3731C26.5604 45.4797 27.1717 44.6527 28.0523 44.5253C30.0176 44.2395 31.5004 42.5021 31.5004 40.4833C31.5004 38.2321 29.6945 36.4 27.4754 36.4H20.231C19.8827 36.4 19.5435 36.5149 19.2645 36.7267L16.1894 39.0664C15.6923 39.4446 15.4005 40.0334 15.4005 40.658V52.5147C15.4005 53.2681 15.8238 53.9575 16.4956 54.2983L19.5097 55.8274C19.7335 55.9407 19.9804 56 20.2305 56H29.4503C31.027 56 32.5861 55.6641 34.027 55.0146Z" fill="#E83330"/>
<g id="Group 10">
<rect id="Rectangle" x="19.6001" width="33.6" height="30.8" rx="1" fill="#FFBF80"/>
<path id="Rectangle Copy" fill-rule="evenodd" clip-rule="evenodd" d="M32.2002 0H40.6002V15.4963C40.6002 15.9774 40.0185 16.2183 39.6784 15.8782L36.782 12.9818C36.5711 12.771 36.2292 12.771 36.0184 12.9818L33.122 15.8782C32.7819 16.2183 32.2002 15.9774 32.2002 15.4963V0Z" fill="#E83330"/>
</g>
</g>
</g>
</svg>
