<svg width="56" height="56" viewBox="0 0 56 56" fill="none" xmlns="http://www.w3.org/2000/svg">
<g id="ic-inTransit-red ">
<g id="Group 9 Copy 2">
<path id="Combined Shape" fill-rule="evenodd" clip-rule="evenodd" d="M30.8 11.8C30.8 10.6954 31.6954 9.8 32.8 9.8H43.8387C44.4463 9.8 45.0209 10.0762 45.4005 10.5506L55.5617 23.2522C55.8454 23.6068 56 24.0474 56 24.5016V42.8C56 43.9046 55.1046 44.8 54 44.8H51.5565C50.6085 40.7866 47.003 37.8 42.7 37.8C38.397 37.8 34.7915 40.7866 33.8435 44.8H30.8H22.1565C21.2085 40.7866 17.603 37.8 13.3 37.8C8.99699 37.8 5.39154 40.7866 4.44351 44.8H2C0.895431 44.8 0 43.9046 0 42.8V34.6C0 34.0477 0.447715 33.6 1 33.6H30.8V11.8ZM37 14C35.8954 14 35 14.8954 35 16V26.6H49.8C50.9046 26.6 51.8 25.7046 51.8 24.6V24.5399C51.8 24.0624 51.6292 23.6008 51.3185 23.2383L43.9986 14.6984C43.6187 14.2551 43.064 14 42.4801 14H37Z" fill="#E83330"/>
<circle id="Oval Copy 3" cx="42.6999" cy="46.9" r="6.3" fill="#E83330"/>
<circle id="Oval Copy 3_2" cx="13.3" cy="46.9" r="6.3" fill="#E83330"/>
<g id="Group 3">
<rect id="Rectangle" y="5.60001" width="28" height="25.2" rx="1.2" fill="#FFBF80"/>
<path id="Rectangle Copy" fill-rule="evenodd" clip-rule="evenodd" d="M9.7998 5.60001H18.1998V18.3516C18.1998 18.8547 17.6178 19.1344 17.225 18.8202L14.3746 16.5399C14.1555 16.3646 13.8441 16.3646 13.625 16.5399L10.7746 18.8202C10.3818 19.1344 9.7998 18.8547 9.7998 18.3516V5.60001Z" fill="#E83330"/>
</g>
</g>
</g>
</svg>
